<?xml version="1.0" standalone="no"?>
<!DOCTYPE svg PUBLIC "-//W3C//DTD SVG 20010904//EN"
 "http://www.w3.org/TR/2001/REC-SVG-20010904/DTD/svg10.dtd">
<svg version="1.0" xmlns="http://www.w3.org/2000/svg"
 width="64.000000pt" height="64.000000pt" viewBox="0 0 64.000000 64.000000"
 preserveAspectRatio="xMidYMid meet">

<g transform="translate(0.000000,64.000000) scale(0.100000,-0.100000)"
fill="#000000" stroke="none">
<path d="M147 513 c-10 -3 -22 -16 -28 -29 -12 -34 -12 -310 1 -335 12 -21 54
-26 67 -6 4 6 10 57 13 112 l5 100 44 -107 c40 -101 45 -108 71 -108 26 0 30
7 71 107 l44 107 5 -99 c3 -55 9 -106 13 -112 13 -20 55 -15 67 6 13 24 13
301 1 334 -11 29 -49 41 -84 28 -20 -8 -34 -32 -68 -120 -23 -61 -45 -111 -49
-111 -4 0 -26 50 -50 111 -34 88 -47 112 -67 120 -25 9 -27 10 -56 2z"/>
</g>
</svg>
